<svg width="167" height="37" viewBox="0 0 167 37" fill="none" xmlns="http://www.w3.org/2000/svg">
<g id="Nodesol Logo 1" clip-path="url(#clip0_11_81)">
<g id="Layer 2">
<g id="Layer 1">
<path id="Vector" d="M36.197 25.5303C36.2322 25.5908 36.197 25.6375 36.1806 25.688C35.3536 27.7907 34.4296 29.8505 33.2111 31.7577C32.5061 32.8627 31.7194 33.9021 30.6784 34.722C30.0288 35.2328 29.3176 35.6049 28.4755 35.6894C27.9139 35.7339 27.3509 35.6231 26.8478 35.3691C25.8911 34.9162 25.1736 34.1859 24.5455 33.3572C23.517 31.9987 22.7932 30.4749 22.1537 28.907C21.1228 26.3628 20.3725 23.7139 19.6638 21.065C19.1603 19.173 18.7109 17.2544 18.1381 15.3749C18.0117 14.8986 17.8327 14.4379 17.6044 14.0013C17.5188 13.8512 17.442 13.657 17.2356 13.662C17.0291 13.667 16.9511 13.8764 16.8831 14.0404C16.6175 14.69 16.5055 15.3838 16.3557 16.0586C15.2991 20.65 14.2501 25.2423 13.2087 29.8354C13.1671 30.0183 13.1017 30.0814 12.9078 30.0763C12.3476 30.0599 11.7862 30.0662 11.2248 30.0763C11.0624 30.0763 11.0372 30.0372 11.0725 29.8783C11.6213 27.3908 12.1668 24.9021 12.7089 22.4122C12.7429 22.2532 12.8348 22.2305 12.9607 22.2003C13.4634 22.076 13.9097 21.7856 14.2274 21.3759C14.5451 20.9662 14.7157 20.4611 14.7117 19.9423C14.7076 19.4234 14.5291 18.9211 14.2051 18.5164C13.881 18.1118 13.4303 17.8284 12.9257 17.712C12.421 17.5957 11.892 17.6532 11.424 17.8752C10.9561 18.0973 10.5764 18.4709 10.3465 18.9358C10.1165 19.4007 10.0497 19.9297 10.1568 20.4373C10.2638 20.945 10.5385 21.4016 10.9365 21.7336C10.9896 21.7671 11.0299 21.8175 11.0509 21.8768C11.072 21.936 11.0724 22.0007 11.0523 22.0603C10.4406 24.62 9.83297 27.1802 9.22958 29.7408C9.19182 29.9035 9.13265 29.9489 8.97782 29.9439C8.24771 29.9212 7.51887 29.906 6.78876 29.9022C6.60875 29.9022 6.57099 29.8694 6.62385 29.684C7.21717 27.628 7.80461 25.5702 8.38618 23.5108C9.41589 19.9046 10.438 16.2958 11.4803 12.692C11.9159 11.1884 12.5012 9.74668 13.4667 8.49161C13.935 7.8811 14.4838 7.35637 15.1951 7.0385C16.4904 6.4507 17.8751 6.93759 18.5485 8.25951C18.9048 8.95075 19.1087 9.70253 19.339 10.443C20.7741 15.0646 22.0644 19.7305 23.4453 24.3698C23.9727 26.1421 24.5215 27.9093 25.3335 29.5768C25.7816 30.4913 26.3028 31.3591 27.0694 32.0504C28.1368 33.0128 29.3201 33.1667 30.594 32.5108C31.4978 32.0453 32.2191 31.3566 32.8788 30.5998C34.1527 29.1378 35.1446 27.4842 36.0258 25.7687C36.0824 25.6867 36.0963 25.5795 36.197 25.5303Z" fill="#1488D5"/>
<path id="Vector_2" d="M9.1893 11.7548C10.3222 8.93687 11.5042 6.20472 13.395 3.84342C14.0042 3.0866 14.6941 2.40672 15.5513 1.92361C16.7421 1.25087 17.9191 1.27526 19.0823 1.99677C19.8728 2.48618 20.4946 3.15093 21.041 3.88883C22.0216 5.22337 22.7252 6.70549 23.3433 8.2305C24.3504 10.7242 25.0943 13.305 25.7904 15.8997C26.3128 17.8485 26.7698 19.8099 27.3564 21.7462C27.4798 22.2054 27.6484 22.6512 27.8599 23.0769C27.9518 23.2497 28.0336 23.4831 28.2627 23.4743C28.4918 23.4654 28.5661 23.2144 28.6404 23.0265C28.8846 22.3857 28.9941 21.7083 29.1439 21.0436C30.1988 16.4522 31.2478 11.8595 32.2909 7.26554C32.3249 7.11544 32.3752 7.05363 32.5427 7.05742C33.1116 7.07003 33.6756 7.06498 34.2483 7.05742C34.3969 7.05742 34.4636 7.05742 34.4208 7.25419C33.8266 9.92663 33.2392 12.602 32.6585 15.2803C32.6507 15.3475 32.6179 15.4093 32.5666 15.4531C32.5311 15.4784 32.4908 15.496 32.4482 15.5049C31.9342 15.6301 31.479 15.9291 31.1593 16.3514C30.8396 16.7737 30.675 17.2936 30.6932 17.8234C30.7114 18.3531 30.9112 18.8604 31.2591 19.2597C31.607 19.6591 32.0817 19.926 32.6031 20.0156C33.0982 20.1034 33.6085 20.028 34.0572 19.8006C34.506 19.5731 34.869 19.2059 35.0917 18.7542C35.3189 18.291 35.3825 17.7642 35.272 17.2601C35.1616 16.756 34.8836 16.3044 34.4837 15.9791C34.4164 15.9339 34.3666 15.8669 34.3426 15.7893C34.3185 15.7118 34.3217 15.6283 34.3516 15.5528C34.9969 12.8501 35.6355 10.1465 36.2675 7.44214C36.314 7.24662 36.3933 7.18986 36.5859 7.18986C37.2921 7.21383 37.9996 7.23022 38.7058 7.22644C38.9475 7.22644 38.9386 7.30717 38.8845 7.49259C38.282 9.58564 37.6828 11.6799 37.0869 13.7755C36.0585 17.3755 35.0364 20.9767 33.9966 24.5729C33.6038 25.9276 33.0625 27.2218 32.2418 28.3823C31.8389 28.9875 31.3151 29.5025 30.7035 29.8947C29.2131 30.8029 27.5565 30.287 26.8604 28.6837C26.4563 27.7541 26.1819 26.7765 25.8874 25.8078C24.5228 21.3236 23.2665 16.8079 21.9221 12.3174C21.4186 10.6334 20.8773 8.96083 20.078 7.3879C19.6185 6.48601 19.0873 5.63332 18.2993 4.97488C17.301 4.14111 16.2084 4.00993 15.0365 4.56241C14.1729 4.96605 13.4692 5.58917 12.8398 6.28671C11.4363 7.82686 10.3801 9.59783 9.42721 11.4382C9.3756 11.5378 9.35546 11.6652 9.1893 11.7548Z" fill="#1488D5"/>
<path id="Vector_3" d="M29.0129 36.9887C29.2999 36.8499 29.5366 36.7477 29.7682 36.6254C31.1126 35.8976 32.2166 34.8834 33.1884 33.7179C34.8639 31.7111 36.0081 29.4103 36.9019 26.9721C37.5313 25.249 37.9656 23.4642 38.5106 21.7134C39.6007 18.2118 40.6594 14.7014 41.7357 11.196C41.7632 11.123 41.7712 11.0441 41.7588 10.9671C41.7465 10.8901 41.7142 10.8177 41.6652 10.7571C41.3872 10.3628 41.2418 9.88999 41.2502 9.40731C41.2585 8.92462 41.4202 8.45717 41.7118 8.07284C42.0003 7.68704 42.4022 7.40162 42.8611 7.25675C43.32 7.11188 43.8126 7.11486 44.2697 7.26526C44.7268 7.41566 45.1253 7.70591 45.4092 8.09516C45.693 8.48441 45.8479 8.95306 45.852 9.43513C45.8615 10.0019 45.659 10.5518 45.2845 10.9766C44.9099 11.4014 44.3903 11.6704 43.8278 11.7308C43.5899 11.7598 43.503 11.8469 43.4401 12.0727C42.603 15.1 41.8225 18.1525 40.9225 21.1647C40.1118 23.864 39.2281 26.5369 38.0524 29.1025C37.2342 30.8886 36.2964 32.6054 35.0061 34.1026C34.0091 35.2606 32.8573 36.2091 31.3782 36.6948C30.6155 36.942 29.8128 37.0417 29.0129 36.9887ZM44.5693 9.45026C44.5696 9.31578 44.5434 9.18257 44.4921 9.05829C44.4408 8.93401 44.3655 8.82114 44.2705 8.72616C44.1754 8.63119 44.0626 8.55599 43.9385 8.50491C43.8143 8.45383 43.6813 8.42788 43.5471 8.42855C43.2757 8.42955 43.0158 8.53856 42.8246 8.73158C42.6333 8.92461 42.5265 9.18585 42.5275 9.45783C42.5285 9.72981 42.6373 9.99025 42.8299 10.1819C43.0225 10.3735 43.2832 10.4806 43.5547 10.4795C43.689 10.4796 43.8219 10.4528 43.9459 10.401C44.0698 10.3491 44.1822 10.2731 44.2766 10.1773C44.371 10.0816 44.4454 9.96801 44.4957 9.8432C44.5459 9.71839 44.5709 9.58483 44.5693 9.45026Z" fill="#6FBE44"/>
<path id="Vector_4" d="M16.5004 0.16021C15.5663 0.544982 14.7033 1.08438 13.9476 1.75585C12.5037 2.99831 11.3809 4.50061 10.4481 6.14671C9.18929 8.34151 8.36729 10.7015 7.67872 13.1247C7.15632 14.9776 6.56342 16.8104 5.99948 18.6508C5.31217 20.896 4.62234 23.1396 3.93 25.3815C3.90087 25.45 3.89346 25.5258 3.90877 25.5987C3.92408 25.6716 3.96138 25.738 4.0156 25.7889C4.33423 26.1367 4.53712 26.5752 4.5962 27.0437C4.65529 27.5121 4.56765 27.9874 4.34541 28.4037C4.16472 28.7483 3.89998 29.0414 3.57581 29.2559C3.25165 29.4703 2.87861 29.5991 2.49142 29.6303C2.10423 29.6614 1.71547 29.5938 1.36133 29.4339C1.0072 29.274 0.699195 29.0269 0.466001 28.7156C0.232807 28.4043 0.0820001 28.039 0.027619 27.6536C-0.0267621 27.2682 0.0170503 26.8752 0.154978 26.5114C0.292905 26.1475 0.520464 25.8245 0.816471 25.5725C1.11248 25.3205 1.46731 25.1476 1.84794 25.0699C1.91439 25.0663 1.97758 25.0399 2.02687 24.9951C2.07616 24.9503 2.10855 24.8899 2.11858 24.8239C2.96198 21.7966 3.73489 18.7605 4.63619 15.7546C5.46071 12.9922 6.36327 10.2664 7.58809 7.65406C8.3975 5.92849 9.32776 4.2887 10.6042 2.85325C11.6414 1.69405 12.8398 0.778285 14.3705 0.356985C15.064 0.169465 15.7845 0.102903 16.5004 0.16021ZM2.27593 28.3444C2.47797 28.3494 2.67692 28.2941 2.84746 28.1854C3.01801 28.0768 3.15243 27.9197 3.23363 27.7343C3.31483 27.5488 3.33913 27.3434 3.30343 27.1441C3.26773 26.9447 3.17366 26.7605 3.03318 26.615C2.8927 26.4694 2.71216 26.369 2.51456 26.3265C2.31695 26.2841 2.11121 26.3015 1.92351 26.3766C1.73582 26.4516 1.57466 26.581 1.46055 26.7481C1.34644 26.9153 1.28454 27.1127 1.28273 27.3152C1.28129 27.5821 1.38389 27.839 1.56869 28.0313C1.7535 28.2235 2.0059 28.3359 2.27216 28.3444H2.27593Z" fill="#6FBE44"/>
<path id="Vector_5" d="M34.0431 17.7539C34.0414 17.9573 33.9795 18.1556 33.8652 18.3237C33.751 18.4918 33.5896 18.6221 33.4014 18.6983C33.2132 18.7744 33.0067 18.7929 32.808 18.7514C32.6093 18.71 32.4274 18.6104 32.2852 18.4652C32.143 18.3201 32.047 18.136 32.0092 17.9362C31.9715 17.7363 31.9938 17.5298 32.0732 17.3426C32.1526 17.1555 32.2857 16.9962 32.4555 16.8848C32.6254 16.7734 32.8243 16.7151 33.0273 16.7171C33.2983 16.7223 33.5565 16.8339 33.7464 17.0277C33.9363 17.2216 34.0429 17.4823 34.0431 17.7539Z" fill="#1488D5"/>
<path id="Vector_6" d="M11.3695 19.9588C11.3715 19.7557 11.4336 19.5578 11.5478 19.3901C11.6621 19.2224 11.8234 19.0924 12.0114 19.0165C12.1994 18.9406 12.4056 18.9223 12.6039 18.9639C12.8023 19.0055 12.9839 19.1051 13.1258 19.2501C13.2677 19.3951 13.3635 19.579 13.401 19.7785C13.4386 19.9781 13.4163 20.1843 13.3369 20.3711C13.2576 20.558 13.1247 20.717 12.9551 20.8282C12.7855 20.9394 12.5868 20.9976 12.3841 20.9956C12.1131 20.9907 11.8549 20.8792 11.6651 20.6853C11.4753 20.4913 11.3692 20.2304 11.3695 19.9588Z" fill="#1488D5"/>
<path id="Vector_7" d="M124.308 34.4949V29.4103H124.837V34.4949H124.308Z" fill="#848688"/>
<path id="Vector_8" d="M138.99 22.9921C138.99 24.5894 138.99 26.1883 138.99 27.792C138.986 28.9064 138.57 29.9741 137.832 30.7623C137.094 31.5505 136.094 31.9953 135.051 31.9999H124V28.4817C127.474 28.4817 130.947 28.5022 134.419 28.5022H135.707V25.5743H124V20.2079C124.004 19.0931 124.42 18.0252 125.159 17.237C125.897 16.4487 126.897 16.0041 127.941 15.9999H139V19.5197C135.522 19.5197 132.044 19.5007 128.566 19.4992H127.273V22.9921H138.99Z" fill="#6FBE44"/>
<path id="Vector_9" d="M153.056 16.0015C154.1 16.0057 155.101 16.4529 155.84 17.2457C156.579 18.0386 156.996 19.1127 157 20.2342V27.7656C156.996 28.8872 156.579 29.9616 155.84 30.7546C155.101 31.5477 154.1 31.9953 153.056 31.9999H145.945C144.9 31.9957 143.899 31.5483 143.16 30.7551C142.421 29.9619 142.004 28.8874 142 27.7656V20.2342C142.004 19.1125 142.421 18.0379 143.16 17.2447C143.899 16.4515 144.9 16.0041 145.945 15.9999L153.056 16.0015ZM153.718 19.5242H145.285V28.4788H153.718V19.5242Z" fill="#6FBE44"/>
<path id="Vector_10" d="M163 31.9999H160V3.99991H163V31.9999Z" fill="#6FBE44"/>
<path id="Vector_11" d="M63.6418 31.9999C63.6521 28.2932 63.6949 24.585 63.6949 20.8783V19.5042H55.3066V20.8783C55.3066 24.585 55.3199 28.2932 55.3229 31.9999H52.0001V15.9999H63.0304C65.027 15.9999 67.0001 17.8195 67.0001 20.0015V31.9952L63.6418 31.9999Z" fill="#1488D5"/>
<path id="Vector_12" d="M80.7933 15.9999C81.9079 16.0045 82.9755 16.452 83.7635 17.2448C84.5515 18.0377 84.9959 19.1116 85.0001 20.2327V27.7687C84.9959 28.8896 84.5514 29.9634 83.7634 30.756C82.9754 31.5486 81.9078 31.9958 80.7933 31.9999H73.2084C72.0937 31.9962 71.0257 31.5492 70.2373 30.7566C69.4489 29.9639 69.0042 28.8899 69.0001 27.7687V20.2406C69.0042 19.1193 69.4489 18.045 70.2372 17.2521C71.0255 16.4592 72.0935 16.012 73.2084 16.0078L80.7933 15.9999ZM81.501 19.5209H72.5007V28.4726H81.501V19.5209Z" fill="#1488D5"/>
<path id="Vector_13" d="M103 3.99991V31.9999H91.2056C90.0915 31.9959 89.0242 31.5608 88.2364 30.7897C87.4486 30.0185 87.0042 28.9738 87.0001 27.8832V20.5588C87.0034 19.4676 87.4473 18.4219 88.2352 17.6498C89.023 16.8778 90.0908 16.442 91.2056 16.4375H99.4957V3.99991H103ZM99.502 19.8663H90.4981V28.568H99.4957L99.502 19.8663Z" fill="#1488D5"/>
<path id="Vector_14" d="M121 23.9385C117.293 23.9385 113.587 23.9826 109.88 23.9826H108.504V29.3238H109.88C112.789 29.3238 115.694 29.2797 118.604 29.2687V31.9999H108.978L108.738 31.9731C107.71 31.8497 106.762 31.3537 106.074 30.5785C105.385 29.8033 105.003 28.8024 105 27.7644V20.2354C105.005 19.1156 105.449 18.0429 106.238 17.2499C107.027 16.4569 108.096 16.0078 109.213 15.9999H120.997L121 23.9385ZM108.617 18.6366V21.3143H118.071V18.6366H108.617Z" fill="#1488D5"/>
</g>
</g>
</g>
<defs>
<clipPath id="clip0_11_81">
<rect width="167" height="37" fill="white"/>
</clipPath>
</defs>
</svg>
